<?xml version="1.0" encoding="UTF-8"?>
<svg version="1.1" xmlns="http://www.w3.org/2000/svg" width="684" height="776">
<path d="M0 0 C9.47927781 0 17.82752284 0.56981127 27.0625 2.0625 C27.75564301 2.17292633 28.44878601 2.28335266 29.16293335 2.39712524 C78.17191532 10.28799305 125.09275253 29.97443147 164 61 C164.99 61.77859375 165.98 62.5571875 167 63.359375 C184.04731221 77.01659671 200.74803295 92.59868906 214 110 C215.18916016 111.49853516 215.18916016 111.49853516 216.40234375 113.02734375 C249.44635104 154.81603308 269.99455687 205.29933915 277 258 C277.11714355 258.87301758 277.23428711 259.74603516 277.35498047 260.64550781 C287.04820775 336.77983086 265.39217847 416.03523747 219 477 C215.46715226 481.450576 211.75548936 485.73701208 208 490 C207.36449219 490.73476563 206.72898437 491.46953125 206.07421875 492.2265625 C204.95874569 493.51384406 203.83653408 494.79532335 202.70703125 496.0703125 C201.50474221 497.42942184 200.31579443 498.80039142 199.13671875 500.1796875 C188.59095989 512.29440106 176.58032925 523.07081459 163.73876953 532.69384766 C161.98007956 534.01496411 160.23806244 535.35615944 158.49609375 536.69921875 C123.61392156 563.27520726 81.9200934 581.02601899 39 589.375 C37.7732959 589.61379883 36.5465918 589.85259766 35.28271484 590.09863281 C18.42157013 593.20931256 1.98289802 594.32997791 -15.15161133 594.26074219 C-18.32587514 594.24995454 -21.49958059 594.26073953 -24.67382812 594.2734375 C-53.07351695 594.29839573 -53.07351695 594.29839573 -59.625 588.25 C-61.12254526 586.53343532 -62.57785945 584.77953712 -64 583 C-64.88061786 581.95107293 -65.7621728 580.90293206 -66.64453125 579.85546875 C-96.7840667 543.39815151 -122.86604635 485.12435336 -121 437 C-116.73645426 439.3255704 -112.50871485 441.66676767 -108.390625 444.2421875 C-81.32434219 461.01462696 -50.64745063 469.45334481 -18.8125 469.3125 C-17.80561127 469.30926727 -17.80561127 469.30926727 -16.77838135 469.30596924 C30.49485144 469.06401577 72.92168929 449.22686599 106 416 C106.54970459 415.46818115 107.09940918 414.9363623 107.66577148 414.38842773 C111.76923363 410.38495412 115.39448264 406.22528474 118.8125 401.625 C119.32458008 400.93583496 119.83666016 400.24666992 120.36425781 399.53662109 C148.07600485 361.55522663 158.60246336 315.21918614 151.9765625 268.875 C148.80366026 248.72083011 141.68545077 229.88186409 132 212 C131.66129883 211.3723877 131.32259766 210.74477539 130.97363281 210.09814453 C109.82416696 171.52497343 72.01395622 142.8261949 29.99072266 130.54248047 C20.12028831 127.85274474 10.02236268 126.00447254 0 124 C0 83.08 0 42.16 0 0 Z " fill="#19345E" transform="translate(374,126)"/>
<path d="M0 0 C0 40.92 0 81.84 0 124 C-10.89 124 -21.78 124 -33 124 C-41.4963746 125.06698658 -49.67952722 126.17019277 -58 128 C-59.22130615 128.26490234 -59.22130615 128.26490234 -60.46728516 128.53515625 C-99.00872693 137.24508659 -132.97254736 161.53359115 -154.47363281 194.57519531 C-198.65203157 264.757514 -199.65593642 353.68838286 -181.96728516 432.37109375 C-174.19973255 465.57751333 -162.12502453 497.10141412 -147.49511719 527.84521484 C-145.9806829 531.04076022 -144.49216768 534.24741734 -143.0078125 537.45703125 C-142.04757111 539.51334604 -141.08666149 541.56934895 -140.125 543.625 C-139.69703125 544.55481689 -139.2690625 545.48463379 -138.828125 546.44262695 C-136.44285279 551.48494055 -133.84023154 555.88243777 -130.32763672 560.22412109 C-128.95053502 562.06616555 -127.96738266 563.91803674 -127 566 C-137.93638015 559.97607166 -147.24607234 552.01381658 -156.30859375 543.50390625 C-158.45200861 541.50981492 -160.62434917 539.61837468 -162.875 537.75 C-173.88911448 528.15558427 -183.29512676 516.67848452 -192 505 C-192.41701172 504.44521973 -192.83402344 503.89043945 -193.26367188 503.31884766 C-251.06536174 426.01697771 -267.22240817 323.82300462 -254.1875 229.8125 C-245.4118656 170.19573121 -225.56184024 111.10617407 -183 67 C-182.16339844 66.10023438 -181.32679688 65.20046875 -180.46484375 64.2734375 C-142.82506902 24.87373364 -85.58465587 8.33987145 -33 2 C-32.08347656 1.88430664 -31.16695312 1.76861328 -30.22265625 1.64941406 C-27.71237722 1.33516294 -25.2010149 1.03712581 -22.6875 0.75 C-22.00196045 0.66959473 -21.3164209 0.58918945 -20.61010742 0.50634766 C-13.67146432 -0.20756957 -7.09229641 0 0 0 Z " fill="#1F6FB8" transform="translate(356,125)"/>
<path d="M0 0 C1 1 1 1 1.12304783 2.95028019 C1.12212604 3.81215663 1.12120424 4.67403307 1.12025452 5.56202698 C1.12231651 7.04077301 1.12231651 7.04077301 1.12442017 8.5493927 C1.12082489 9.63983383 1.11722961 10.73027496 1.11352539 11.85375977 C1.11367142 12.99507355 1.11381744 14.13638733 1.1139679 15.31228638 C1.11326818 19.10534531 1.10547307 22.89835584 1.09765625 26.69140625 C1.09579228 29.31314568 1.09436828 31.93488546 1.09336853 34.55662537 C1.09025551 40.76501955 1.08204252 46.97339621 1.07201904 53.18178266 C1.06085699 60.24817441 1.05534722 67.31456699 1.05032361 74.38096535 C1.03985988 88.92065263 1.022261 103.46032607 1 118 C0.1820546 118.10578873 -0.63589081 118.21157745 -1.47862244 118.3205719 C-4.57150821 118.72401907 -7.66347559 119.13380536 -10.75498962 119.54762268 C-12.72775763 119.80981594 -14.70145683 120.06497242 -16.6751709 120.31994629 C-40.12849924 123.47505257 -64.95299843 131.06689547 -83 147 C-83.86109375 147.74378906 -84.7221875 148.48757813 -85.609375 149.25390625 C-106.44200151 168.52702823 -115.10341243 197.51609934 -118 225 C-118.11085937 225.969375 -118.22171875 226.93875 -118.3359375 227.9375 C-124.16240086 288.40674138 -106.5061949 349.24204577 -78.1875 402.125 C-77.68508789 403.06561279 -77.18267578 404.00622559 -76.66503906 404.9753418 C-73.37377264 410.95511989 -69.64011854 416.42757941 -65.5324707 421.87841797 C-64 424 -64 424 -64 425 C-78.09950576 424.17061731 -91.41771681 417.12552005 -101.0625 407 C-153.06936153 346.46204446 -169.47896392 246.9140191 -164.25 169.6875 C-160.46536299 120.74941798 -143.99730137 71.61753089 -106.08984375 38.49609375 C-77.33880873 15.26990996 -37.68130644 -1.74948923 0 0 Z " fill="#1F6FB8" transform="translate(355,293)"/>
<path d="M0 0 C0.99 0.495 0.99 0.495 2 1 C1.63350342 1.61182129 1.26700684 2.22364258 0.8894043 2.85400391 C-27.10063783 49.75293271 -46.08283353 99.59463326 -53 154 C-53.08720306 154.6856604 -53.17440613 155.3713208 -53.26425171 156.07775879 C-55.02828119 170.38942519 -55.36239867 184.59129286 -55.3125 199 C-55.31034485 200.12273315 -55.3081897 201.24546631 -55.30596924 202.40222168 C-55.25356468 219.43885261 -54.81253566 236.15988006 -52 253 C-51.79600586 254.22944336 -51.59201172 255.45888672 -51.38183594 256.72558594 C-39.41305955 326.70895528 -9.59517528 394.18823444 39.48828125 446.1796875 C41 448 41 448 41 450 C19.22456292 440.52315941 -3.03251454 414.34086643 -17 396 C-17.79277344 395.00097656 -18.58554688 394.00195312 -19.40234375 392.97265625 C-57.031498 345.38541833 -81.74796853 283.23290932 -82.23828125 222.17578125 C-82.2480751 221.16380173 -82.25786896 220.1518222 -82.26795959 219.10917664 C-82.44216682 196.42353636 -82.25129483 174.34780269 -78 152 C-77.68651611 150.33420898 -77.68651611 150.33420898 -77.36669922 148.63476562 C-67.1250922 96.19160041 -42.41658604 46.19536168 -6 7 C-3.9780386 4.68439276 -1.98805596 2.34488651 0 0 Z " fill="#1F6FB8" transform="translate(140,216)"/>
<path d="M0 0 C2.8886754 2.47175317 4.50590384 4.11370947 4.9375 7.9375 C5.02902344 8.58589844 5.12054688 9.23429688 5.21484375 9.90234375 C4.82499588 13.7086766 2.90966988 16.2267806 0.046875 18.66015625 C-18.23446518 29.82172279 -40.56021918 29.5297559 -60.93359375 25.40625 C-67.82269723 23.60068154 -75.58854471 20.46646697 -79.75 14.484375 C-81.38048553 11.243785 -81.64638257 9.59101429 -81 6 C-75.96663351 -2.48113034 -67.76876305 -5.00937158 -58.7109375 -7.38671875 C-39.70928868 -11.68536265 -16.69565537 -10.7198164 0 0 Z " fill="#1F6FB8" transform="translate(349,526)"/>
</svg>
